<svg xmlns="http://www.w3.org/2000/svg" viewBox="0 0 96 96" role="img" aria-labelledby="title desc">
  <title id="title">Bakare Farm logo</title>
  <desc id="desc">A modern poultry farm badge with a chicken, leaf, and sunrise.</desc>
  <rect width="96" height="96" rx="22" fill="#15462e"/>
  <circle cx="48" cy="48" r="34" fill="#f7f8f3"/>
  <path d="M24 58c8-18 24-28 48-30-6 6-10 13-11 21 5 1 9 4 12 9-8 2-15 1-21-4-8 6-17 8-28 4Z" fill="#237047"/>
  <path d="M34 56c6-14 16-21 31-23-3 5-5 10-5 16 3 1 6 3 8 6-6 1-11 0-15-4-5 4-11 6-19 5Z" fill="#f2b84b"/>
  <path d="M30 64h38" stroke="#15462e" stroke-width="5" stroke-linecap="round"/>
  <path d="M41 44c0-8 5-15 13-17 2 4 2 9-1 13 5 0 9 2 12 6-6 3-12 3-17 0-2 2-4 2-7-2Z" fill="#ffffff"/>
  <circle cx="53" cy="34" r="2.5" fill="#15462e"/>
  <path d="M58 31l8-3-5 7Z" fill="#e66b2f"/>
</svg>
