<svg xmlns="http://www.w3.org/2000/svg" viewBox="0 0 900 675" role="img" aria-labelledby="title desc">
  <title id="title">Layer chickens in a poultry yard</title>
  <desc id="desc">Illustration of healthy layer chickens standing in a clean green farm yard.</desc>
  <rect width="900" height="675" fill="#dfeee0"/>
  <path d="M0 426c124-35 230-34 318 3 103 44 201 43 294-2 93-44 189-47 288-9v257H0Z" fill="#8fbf7a"/>
  <path d="M0 0h900v295c-94-37-185-42-273-15-118 36-217 38-297 6-101-41-211-40-330 3Z" fill="#f7f8f3"/>
  <circle cx="706" cy="118" r="58" fill="#f2b84b"/>
  <path d="M90 342h720" stroke="#15462e" stroke-width="12" stroke-linecap="round" opacity=".16"/>
  <g transform="translate(122 264)">
    <ellipse cx="108" cy="146" rx="92" ry="70" fill="#ffffff"/>
    <circle cx="170" cy="90" r="44" fill="#ffffff"/>
    <path d="M159 55c-11-23 8-42 30-34 0 18-10 30-30 34Z" fill="#d94c36"/>
    <path d="M202 91l42 15-41 20Z" fill="#f2b84b"/>
    <circle cx="184" cy="82" r="6" fill="#17201a"/>
    <path d="M68 158c23 16 53 17 89 2" fill="none" stroke="#d9dfd4" stroke-width="8" stroke-linecap="round"/>
    <path d="M83 214v47M139 212v49" stroke="#b46b2f" stroke-width="10" stroke-linecap="round"/>
  </g>
  <g transform="translate(350 304)">
    <ellipse cx="106" cy="128" rx="82" ry="60" fill="#fff7e8"/>
    <circle cx="160" cy="76" r="39" fill="#fff7e8"/>
    <path d="M151 45c-9-21 7-36 27-30 1 16-9 27-27 30Z" fill="#d94c36"/>
    <path d="M190 78l37 13-37 18Z" fill="#f2b84b"/>
    <circle cx="173" cy="70" r="5" fill="#17201a"/>
    <path d="M78 139c20 12 47 13 77 1" fill="none" stroke="#eadcc6" stroke-width="7" stroke-linecap="round"/>
    <path d="M88 190v42M136 188v44" stroke="#b46b2f" stroke-width="9" stroke-linecap="round"/>
  </g>
  <g transform="translate(592 276)">
    <ellipse cx="102" cy="142" rx="88" ry="66" fill="#ffffff"/>
    <circle cx="154" cy="87" r="42" fill="#ffffff"/>
    <path d="M145 52c-10-22 8-39 29-32 0 17-10 28-29 32Z" fill="#d94c36"/>
    <path d="M187 88l40 14-39 20Z" fill="#f2b84b"/>
    <circle cx="169" cy="79" r="6" fill="#17201a"/>
    <path d="M65 153c22 15 51 15 85 2" fill="none" stroke="#d9dfd4" stroke-width="8" stroke-linecap="round"/>
    <path d="M78 210v47M132 208v49" stroke="#b46b2f" stroke-width="10" stroke-linecap="round"/>
  </g>
</svg>
